<?xml version="1.0" standalone="no"?>
<!DOCTYPE svg PUBLIC "-//W3C//DTD SVG 20010904//EN"
 "http://www.w3.org/TR/2001/REC-SVG-20010904/DTD/svg10.dtd">
<svg version="1.0" xmlns="http://www.w3.org/2000/svg"
 width="5000.000000pt" height="5000.000000pt" viewBox="0 0 5000.000000 5000.000000"
 preserveAspectRatio="xMidYMid meet">

<g transform="translate(0.000000,5000.000000) scale(0.100000,-0.100000)"
fill="#282c34" stroke="none">
<path d="M20758 43528 c-154 -11 -349 -84 -520 -194 -37 -24 -129 -100 -204
-169 -97 -89 -157 -136 -205 -160 -76 -39 -105 -72 -122 -144 -11 -47 -15 -51
-57 -67 -94 -35 -201 -97 -235 -136 -42 -50 -59 -97 -95 -273 -16 -77 -43
-176 -61 -220 -31 -77 -33 -86 -33 -217 -1 -76 -2 -138 -3 -138 -2 0 -15 20
-30 44 -16 24 -65 82 -110 129 -93 98 -81 100 -140 -18 -66 -132 -81 -237 -49
-340 9 -27 16 -54 16 -58 0 -16 -137 5 -245 38 -95 30 -191 51 -299 68 l-29 5
6 -67 c8 -92 35 -217 59 -274 24 -55 69 -98 269 -258 96 -77 136 -115 127
-120 -27 -15 -146 -31 -233 -32 -98 0 -196 22 -301 68 -45 20 -59 23 -65 13
-21 -32 -51 -198 -51 -278 0 -121 31 -192 131 -303 l34 -38 -45 -47 c-71 -74
-125 -148 -158 -218 -30 -62 -85 -252 -76 -262 3 -2 64 44 137 103 l131 108
-7 -42 c-12 -73 -7 -302 9 -401 18 -113 42 -194 104 -350 51 -130 118 -280
126 -280 2 0 17 52 31 116 23 95 35 127 69 177 48 70 66 81 66 40 0 -39 17
-96 50 -173 16 -36 31 -92 35 -125 12 -98 5 -102 130 75 85 122 136 164 227
191 27 7 33 1 145 -139 237 -294 314 -357 465 -383 108 -18 112 -11 30 52 -67
52 -70 57 -47 61 43 9 197 -10 270 -33 89 -27 219 -88 271 -127 91 -67 115
-127 135 -338 10 -104 10 -127 -1 -134 -7 -4 -77 -11 -156 -15 -130 -7 -149
-5 -215 15 -40 12 -116 44 -170 70 l-97 49 67 -67 c181 -183 415 -463 536
-641 167 -248 214 -397 230 -741 l6 -125 -29 85 c-35 104 -61 156 -118 236
-84 119 -224 225 -349 264 -144 45 -259 143 -286 243 -6 22 -10 93 -10 156 2
139 -12 194 -70 281 -73 108 -220 198 -388 237 -90 20 -585 31 -645 13 -73
-21 -478 -227 -589 -300 -164 -106 -316 -225 -490 -382 l-48 -43 69 -145 c85
-176 237 -536 322 -760 34 -91 65 -168 68 -172 12 -12 173 103 256 182 97 92
167 183 209 271 31 65 34 68 82 83 212 62 398 53 738 -36 64 -17 117 -34 117
-38 0 -19 -108 -215 -165 -299 -149 -222 -366 -422 -790 -729 -93 -68 -180
-131 -193 -140 l-23 -17 31 -90 c45 -134 82 -322 115 -592 6 -47 9 -52 36 -58
49 -11 86 -49 93 -97 4 -24 18 -67 32 -96 23 -47 33 -56 87 -81 131 -60 320
-218 363 -302 27 -54 67 -192 62 -215 -2 -10 -38 11 -123 74 -66 48 -144 103
-174 121 -57 35 -199 86 -270 97 l-43 7 7 -42 c15 -88 22 -299 23 -631 l0
-345 -55 -175 c-58 -185 -101 -291 -229 -560 -157 -332 -783 -1564 -791 -1557
-1 2 6 45 17 95 114 520 231 1440 258 2022 9 202 9 755 0 941 -18 350 -55 700
-123 1179 -69 476 -104 629 -222 980 -189 562 -482 1174 -769 1611 -176 268
-349 463 -574 645 -212 172 -547 368 -820 479 -63 26 -117 49 -120 52 -7 7
129 -5 270 -23 133 -17 473 -79 704 -129 88 -19 161 -33 163 -31 6 5 -135 62
-262 105 -257 86 -553 148 -870 181 -145 16 -550 13 -715 -5 -496 -52 -973
-245 -1452 -587 -624 -445 -1228 -1159 -1568 -1853 -332 -678 -640 -1833 -804
-3012 l-5 -33 299 0 299 0 453 -110 c249 -61 459 -113 466 -115 20 -7 -22 -80
-79 -137 -27 -27 -75 -61 -107 -76 -56 -27 -59 -27 -277 -27 -219 0 -758 12
-930 20 -49 2 -200 7 -335 10 -135 3 -281 8 -325 10 -44 2 -183 7 -310 10
-126 3 -279 8 -340 10 -60 3 -198 7 -305 10 -107 3 -253 7 -325 10 -71 3 -215
7 -320 10 -221 6 -429 16 -433 20 -1 1 2 29 7 61 11 66 7 213 -8 289 -5 27 -8
52 -6 55 2 4 263 71 579 151 317 79 576 147 576 150 0 4 -48 8 -107 9 -60 1
-124 3 -143 5 -19 2 -138 6 -265 10 -126 4 -237 8 -245 10 -18 4 -501 19 -577
18 -108 -2 -215 -78 -307 -216 -218 -332 -180 -748 91 -997 38 -34 97 -76 137
-95 65 -31 83 -35 206 -44 222 -17 429 -27 908 -46 67 -3 177 -7 245 -10 67
-3 262 -10 432 -15 171 -5 357 -12 415 -15 58 -2 209 -7 335 -11 127 -4 231
-7 232 -8 1 -1 10 -78 18 -172 157 -1675 728 -3190 1594 -4229 112 -135 353
-371 461 -451 377 -281 854 -461 1400 -528 214 -26 258 -28 529 -27 380 1 553
19 776 82 304 85 673 284 985 529 693 546 1342 1413 1660 2216 216 545 417
1319 546 2101 l38 233 71 -6 c39 -3 94 -16 125 -29 112 -48 217 -43 350 17
l65 29 44 -51 c55 -65 96 -87 259 -145 131 -47 133 -47 190 -35 123 26 183 79
233 208 30 77 37 207 15 289 -15 59 -14 66 5 140 28 106 46 462 31 606 -9 90
-16 117 -57 207 -49 107 -55 139 -40 231 7 44 5 49 -30 87 -20 23 -52 51 -71
63 -20 12 -33 23 -31 25 5 6 192 -51 267 -82 36 -14 80 -37 97 -50 l32 -25 -5
-92 c-3 -51 -12 -177 -19 -282 -7 -104 -12 -191 -12 -191 1 -1 130 -5 287 -8
157 -4 321 -9 365 -11 44 -2 168 -7 275 -10 107 -3 229 -8 270 -10 41 -2 152
-7 245 -10 94 -3 208 -8 255 -10 47 -2 157 -7 245 -10 88 -3 207 -7 265 -10
112 -5 292 -11 565 -20 94 -3 222 -7 285 -10 63 -2 230 -7 370 -10 140 -4 289
-8 330 -10 41 -2 242 -7 447 -11 l372 -7 3 94 c8 257 -21 437 -114 707 -27 79
-48 146 -45 148 2 2 60 19 128 38 198 55 291 93 398 166 73 50 132 72 301 115
177 45 222 61 400 148 129 62 153 78 215 141 40 40 85 98 103 133 72 136 106
357 105 683 l0 225 19 -45 c51 -115 106 -289 203 -641 58 -210 107 -384 109
-386 2 -2 143 -35 313 -73 817 -182 1582 -396 1903 -532 246 -104 802 -375
1130 -552 203 -109 278 -132 585 -171 220 -29 343 -52 510 -96 316 -82 500
-104 980 -114 323 -7 916 -29 1065 -40 30 -2 165 -7 300 -10 135 -4 272 -11
304 -17 61 -10 146 -48 250 -111 32 -20 100 -50 151 -67 140 -47 199 -91 261
-198 12 -21 38 -42 71 -58 50 -25 58 -26 300 -29 255 -3 425 -16 548 -40 112
-23 136 -68 139 -255 1 -88 -1 -105 -14 -104 -9 1 -76 4 -150 8 -74 3 -164 9
-200 11 -36 3 -146 9 -245 15 -181 10 -295 17 -435 25 -41 2 -122 7 -180 10
-58 3 -134 8 -170 10 -36 2 -117 7 -180 10 -63 3 -144 8 -180 10 -36 2 -112 7
-170 10 -58 3 -139 8 -180 10 -41 2 -127 7 -190 10 -63 3 -185 10 -270 15 -85
5 -202 12 -260 15 -58 3 -184 10 -280 15 -96 5 -310 16 -475 25 -165 8 -334
17 -375 20 -41 3 -169 10 -285 15 -115 6 -244 12 -285 15 -75 4 -108 6 -500
25 -113 6 -243 12 -290 15 -134 7 -275 14 -405 20 -66 3 -160 7 -210 10 -130
7 -282 14 -425 20 -69 3 -170 8 -225 10 -55 3 -143 7 -195 10 -52 3 -162 7
-245 10 -82 3 -190 8 -240 10 -49 2 -164 7 -255 10 -91 3 -212 8 -270 10 -58
2 -188 7 -290 10 -102 3 -230 7 -285 10 -55 2 -192 7 -305 10 -113 3 -268 7
-345 10 -166 6 -417 13 -680 20 -104 3 -271 7 -370 10 -381 10 -558 15 -775
20 -124 3 -292 7 -375 10 -82 3 -292 7 -465 10 -173 3 -364 7 -425 10 -60 3
-245 7 -410 10 -165 3 -388 7 -495 10 -107 3 -307 7 -445 10 -137 3 -356 7
-485 10 -129 3 -345 7 -480 10 -135 3 -369 8 -520 11 l-275 6 -27 -99 c-16
-55 -28 -104 -28 -109 0 -5 103 -8 237 -7 130 1 244 -2 253 -7 9 -5 53 -66 99
-137 45 -70 121 -186 167 -258 47 -71 173 -267 281 -435 257 -401 328 -506
502 -745 188 -259 226 -322 252 -420 23 -87 27 -212 20 -625 -2 -113 0 -227 3
-255 19 -137 30 -199 53 -300 14 -60 29 -114 33 -118 4 -4 45 22 91 59 118 95
117 94 95 60 -124 -194 -192 -359 -222 -541 -9 -55 -31 -144 -49 -198 -31 -94
-31 -97 -11 -91 47 16 84 20 146 18 88 -2 190 -14 190 -23 0 -4 -21 -12 -46
-19 -123 -33 -293 -135 -357 -215 -42 -51 -81 -127 -97 -187 -6 -25 -58 -193
-115 -375 -135 -429 -164 -529 -224 -771 -58 -234 -97 -457 -111 -634 -11
-130 -14 -597 -5 -710 3 -36 10 -135 15 -220 30 -431 96 -897 200 -1420 27
-135 58 -301 69 -370 105 -653 216 -1826 222 -2330 1 -74 8 -191 15 -260 108
-1003 151 -1571 152 -1960 0 -502 -43 -954 -119 -1239 -83 -315 -134 -438
-314 -756 -293 -520 -456 -890 -505 -1142 -25 -132 -58 -442 -75 -698 -13
-206 -13 -1033 0 -1170 7 -74 43 -567 50 -690 3 -49 8 -115 10 -145 3 -30 7
-104 10 -165 3 -60 8 -139 10 -175 3 -36 9 -173 15 -305 6 -132 12 -269 15
-305 10 -155 20 -590 19 -895 -1 -462 -16 -540 -158 -823 -103 -203 -144 -334
-230 -730 -45 -207 -48 -319 -11 -497 14 -66 25 -122 25 -126 0 -3 -33 -26
-72 -52 -89 -55 -142 -110 -157 -159 -19 -57 -14 -249 9 -357 36 -176 85 -229
220 -234 l65 -2 2 -115 c2 -129 -10 -387 -32 -713 -31 -446 -18 -758 38 -907
35 -96 216 -409 370 -640 241 -364 356 -473 593 -564 126 -48 223 -66 364 -66
180 0 292 30 480 128 254 133 381 273 437 482 24 88 24 393 -1 570 -19 146
-83 471 -94 482 -4 4 -36 -45 -71 -109 -70 -127 -69 -127 -97 -27 -12 42 -17
101 -18 204 -1 131 -3 150 -24 193 -30 59 -89 121 -170 176 -35 23 -78 63 -97
89 -38 53 -75 155 -75 207 l0 34 113 3 112 3 -80 42 c-158 82 -185 98 -189
113 -3 8 -7 60 -11 115 l-6 100 95 29 c53 16 96 31 96 34 0 3 -31 64 -70 137
l-69 132 87 12 c146 20 142 19 137 49 -3 15 -21 108 -41 207 -31 156 -35 199
-35 322 0 77 5 171 11 208 6 37 9 69 8 70 -2 1 -30 10 -63 19 -33 10 -90 26
-127 37 l-68 20 108 107 c135 134 232 247 231 270 0 9 -15 61 -32 114 l-32 98
-100 -86 c-114 -98 -157 -123 -224 -131 l-49 -6 -6 159 c-13 289 6 565 89
1304 74 655 123 1189 160 1755 3 44 8 100 10 125 2 25 7 90 10 145 3 55 7 120
10 145 2 25 7 95 10 155 3 61 10 173 15 250 5 77 11 167 12 200 1 50 6 64 27
85 43 42 419 360 426 360 3 0 4 -19 0 -42 -3 -24 -75 -556 -160 -1183 -85
-627 -156 -1150 -158 -1163 -9 -51 -6 -44 225 493 83 193 219 526 304 740 165
422 254 643 357 885 90 212 157 456 241 880 33 164 97 523 93 525 -1 2 -65
-29 -142 -66 -211 -104 -333 -160 -305 -141 131 92 233 178 314 263 53 56 96
106 96 110 0 5 -21 -1 -47 -12 -39 -17 -260 -87 -328 -105 -11 -3 43 28 120
68 250 131 340 204 363 294 13 53 57 125 124 205 21 26 38 49 38 52 0 6 -94
43 -145 56 -22 6 -59 11 -83 11 -72 0 -247 70 -225 90 4 4 107 66 228 138 216
128 277 175 308 237 32 63 55 288 37 355 -12 44 -67 112 -114 141 l-29 18 39
16 c136 57 266 74 303 41 33 -30 45 -84 44 -186 l-2 -95 33 100 c58 176 117
326 181 465 35 74 79 187 100 250 45 140 137 498 133 517 -2 8 -31 -8 -83 -47
-119 -91 -250 -153 -331 -158 -57 -4 -72 -1 -127 26 -102 50 -181 150 -229
291 -20 57 -23 85 -23 216 0 84 8 211 18 290 30 236 25 390 -27 755 -78 547
-124 949 -141 1220 -3 52 -7 134 -10 181 -7 120 10 310 31 351 22 44 29 47 83
42 241 -23 486 -96 721 -213 204 -102 292 -170 309 -240 18 -74 33 -430 27
-633 -3 -111 -8 -286 -11 -388 -3 -102 -8 -223 -11 -270 -3 -46 -3 -82 0 -80
8 8 22 108 66 460 44 357 60 453 93 580 20 77 22 111 23 360 l0 275 33 93 c18
52 48 127 67 169 19 42 34 78 34 81 0 4 -29 -22 -64 -57 l-63 -63 -39 64 c-78
131 -168 260 -215 313 -61 66 -128 109 -334 213 -195 98 -276 150 -333 211
-85 89 -593 758 -629 826 -24 44 -152 595 -180 773 -23 143 -23 550 1 832 53
639 23 963 -126 1363 -22 59 -39 109 -37 111 23 18 150 87 254 139 157 79 279
127 405 163 370 103 1005 -37 1425 -313 223 -147 449 -400 599 -672 25 -46 46
-89 46 -95 0 -11 -17 -21 -262 -150 -70 -37 -130 -71 -132 -75 -3 -4 124 -18
281 -31 l286 -24 -34 -28 c-59 -50 -247 -135 -354 -162 -125 -31 -316 -96
-533 -182 -92 -36 -178 -70 -191 -75 -47 -19 -5 -29 155 -39 87 -6 218 -19
289 -30 135 -20 335 -57 341 -63 2 -2 -5 -29 -16 -60 -11 -32 -27 -119 -35
-195 -8 -75 -34 -296 -57 -490 -42 -350 -42 -352 -23 -385 10 -17 140 -217
289 -444 149 -227 383 -587 520 -800 566 -879 795 -1208 1139 -1638 281 -350
432 -520 742 -835 297 -303 531 -562 703 -781 87 -111 564 -864 631 -996 34
-67 48 -137 70 -344 12 -107 23 -213 26 -236 4 -38 -1 -50 -64 -145 -37 -57
-115 -162 -172 -233 -223 -276 -283 -360 -391 -545 -212 -365 -402 -755 -477
-978 -84 -251 -128 -527 -136 -862 -9 -347 -15 -435 -34 -560 -104 -658 -417
-1566 -748 -2169 -51 -93 -197 -312 -225 -337 -12 -12 -40 -27 -60 -34 -81
-25 -243 -177 -338 -315 -50 -73 -106 -267 -126 -440 -11 -92 -21 -41 -30 155
-4 96 -8 180 -9 185 -1 18 -37 5 -160 -55 -296 -144 -402 -281 -509 -655 l-14
-50 -1 103 -1 103 -87 -47 c-49 -26 -126 -67 -173 -92 -47 -25 -87 -47 -89
-49 -3 -2 3 -34 13 -71 13 -50 16 -98 14 -191 l-3 -123 -57 98 c-83 144 -88
150 -77 89 16 -89 50 -188 90 -265 103 -198 570 -749 810 -955 57 -49 151
-130 209 -179 310 -266 747 -685 831 -796 57 -76 156 -242 301 -506 134 -243
193 -333 311 -469 244 -283 886 -867 1032 -940 126 -62 281 -80 440 -51 120
21 132 34 185 187 21 63 48 139 59 169 53 144 10 322 -130 535 -72 109 -133
241 -164 355 -15 52 -28 101 -30 107 -3 7 -10 11 -17 8 -15 -5 -396 -85 -405
-85 -4 0 31 28 78 61 116 86 254 224 280 284 45 102 34 218 -44 470 -24 77
-77 274 -118 438 -69 278 -75 298 -94 292 -108 -32 -183 -47 -255 -51 -109 -7
-131 4 -147 71 -13 53 -38 254 -48 395 l-6 85 103 54 c57 30 123 68 148 85 54
36 138 113 151 138 11 20 22 23 -138 -41 -29 -12 -76 -30 -104 -41 l-51 -21
18 25 c11 14 61 80 113 147 52 67 86 119 75 115 -96 -40 -195 -32 -311 23 -47
23 -84 44 -81 46 2 3 29 1 59 -5 51 -9 147 -15 196 -11 42 2 53 26 52 114 0
45 -6 118 -13 161 -14 85 -10 162 19 376 50 362 253 1038 453 1511 140 328
291 555 893 1344 161 210 302 436 489 782 216 398 325 655 558 1313 l58 165
-55 7 c-31 5 -106 15 -166 23 -235 32 -474 103 -660 198 -87 44 -220 126 -180
111 117 -44 350 -116 430 -132 274 -57 622 -59 727 -5 48 24 123 201 189 448
16 61 48 147 70 193 37 75 59 102 243 291 l203 208 61 124 c171 349 234 588
236 895 l1 152 -72 143 c-123 247 -247 419 -302 419 -48 0 -123 -62 -243 -198
l-55 -64 -6 119 c-12 231 -56 454 -121 605 -43 98 -214 423 -362 686 -58 103
-99 180 -91 172 8 -8 70 -80 138 -160 159 -187 446 -478 727 -738 122 -113
231 -211 241 -218 17 -13 17 -9 -1 109 -27 182 -106 625 -134 762 -82 386
-375 1238 -555 1610 -35 73 -249 397 -459 695 -67 96 -128 182 -133 190 -16
23 20 -15 128 -133 54 -59 100 -106 102 -104 4 4 -256 817 -290 908 -68 179
-278 546 -529 923 -140 210 -441 637 -445 632 -2 -1 49 -157 112 -345 l114
-343 -127 123 c-250 244 -564 524 -827 739 -209 170 -288 243 -372 344 -187
222 -268 398 -403 866 -32 113 -95 310 -140 439 -121 351 -171 535 -186 686
l-7 70 89 -79 c49 -44 99 -89 112 -100 l24 -21 -22 55 c-70 175 -136 354 -181
495 -28 88 -73 228 -100 310 -54 160 -264 681 -451 1115 -63 146 -141 327
-174 402 l-59 138 -65 25 c-161 62 -343 105 -545 129 -71 9 -303 36 -515 61
-212 25 -398 48 -415 52 -20 4 93 24 335 59 721 104 675 96 654 111 -33 24
-288 161 -452 242 -290 145 -545 245 -740 290 -281 66 -850 2 -1740 -196 -89
-20 -165 -33 -168 -30 -6 6 174 615 270 912 84 261 82 253 106 452 12 109 34
227 59 325 22 84 42 185 46 223 11 119 -11 108 209 101 105 -4 216 -9 246 -11
30 -2 127 -7 215 -10 88 -3 189 -7 225 -10 36 -2 146 -7 245 -10 99 -3 214 -8
255 -10 41 -2 145 -7 230 -10 85 -3 193 -7 240 -10 47 -2 155 -7 240 -10 85
-3 198 -8 250 -10 52 -3 160 -7 240 -10 80 -3 192 -7 250 -10 58 -3 166 -7
240 -10 74 -3 187 -7 250 -10 63 -3 176 -7 250 -10 135 -5 257 -10 485 -20 66
-2 185 -7 265 -10 80 -3 197 -7 260 -10 189 -8 346 -14 500 -20 80 -3 199 -7
265 -10 66 -3 185 -7 265 -10 80 -3 190 -7 245 -10 55 -2 159 -7 230 -10 357
-15 544 -23 690 -30 55 -3 253 -12 440 -20 187 -8 376 -17 420 -20 44 -2 139
-7 210 -10 72 -3 164 -8 205 -10 41 -3 120 -7 175 -10 55 -3 186 -9 290 -15
105 -5 285 -15 400 -20 116 -6 248 -12 295 -15 159 -10 605 -34 730 -40 160
-7 230 -15 230 -24 0 -18 155 -266 211 -337 34 -44 138 -153 231 -244 l169
-165 15 -85 c46 -265 135 -613 236 -920 192 -586 378 -984 642 -1375 417 -617
1036 -1144 1618 -1376 258 -103 592 -177 948 -209 111 -10 639 -15 690 -6 14
2 63 7 110 11 119 9 338 41 482 70 799 163 1541 672 2115 1451 379 515 677
1151 898 1919 58 204 127 485 158 650 l13 70 156 5 157 5 40 39 c73 72 134
213 165 389 15 79 19 111 31 242 l6 60 -44 -105 -43 -105 -130 2 c-71 2 -170
6 -219 9 l-91 6 -2 221 c-1 122 -4 249 -7 282 -2 33 -7 110 -10 170 -6 103
-39 487 -53 620 l-7 60 -165 -330 c-153 -305 -165 -327 -168 -290 -8 129 -47
428 -73 567 -135 725 -467 1484 -937 2143 -327 459 -567 722 -869 952 -333
254 -764 450 -1173 532 -207 42 -314 53 -565 58 -381 8 -621 -26 -955 -137
-489 -161 -927 -429 -1465 -896 -157 -136 -255 -237 -358 -369 -316 -406 -663
-1105 -925 -1867 l-51 -146 132 -47 c192 -69 352 -133 431 -172 88 -44 165
-120 195 -194 21 -50 32 -62 100 -107 42 -28 97 -61 123 -72 26 -11 56 -33 66
-48 30 -41 76 -139 108 -225 16 -42 35 -79 44 -81 8 -3 98 -7 200 -11 102 -3
210 -8 240 -10 30 -2 114 -7 185 -10 72 -3 166 -8 210 -10 44 -3 125 -7 180
-10 340 -19 669 -49 711 -65 24 -9 67 -67 103 -137 28 -57 27 -64 -11 -59 -18
3 -118 8 -223 11 -104 3 -212 8 -240 10 -27 2 -122 7 -210 10 -88 3 -185 7
-215 10 -30 2 -138 7 -240 10 -102 3 -205 8 -230 10 -25 2 -126 7 -225 10 -99
3 -202 8 -230 10 l-50 5 -23 -83 c-29 -106 -62 -157 -100 -157 -48 0 -87 57
-128 184 -24 77 -29 73 -39 -39 -9 -104 -42 -303 -60 -361 -8 -28 -24 -59 -35
-69 -26 -24 -97 -22 -157 5 l-47 21 -69 -37 c-37 -20 -70 -34 -72 -32 -7 7
-16 162 -16 278 -1 98 5 152 26 250 15 69 30 128 34 132 4 4 15 -50 25 -120
11 -70 22 -136 26 -147 8 -22 85 367 96 480 6 69 -6 192 -27 269 -29 109 -136
128 -186 33 -18 -34 -23 -185 -9 -243 12 -47 -4 -21 -54 87 l-47 102 -209 87
c-115 49 -276 111 -356 138 -81 28 -170 63 -200 78 -100 50 -248 172 -248 205
0 6 17 36 38 67 21 31 48 73 60 94 l23 36 -79 31 c-123 47 -217 71 -341 86
-99 11 -124 18 -185 51 -198 105 -181 99 -291 99 -85 0 -109 -4 -162 -26 -35
-15 -60 -21 -56 -15 4 6 22 35 41 64 18 30 32 55 30 57 -1 1 -57 5 -123 8 -75
4 -172 17 -260 36 -131 28 -185 34 -261 32 -38 -1 -109 -47 -191 -125 -35 -32
-63 -54 -63 -49 0 4 9 42 21 83 22 79 59 152 115 226 23 30 30 46 22 49 -7 2
-87 24 -178 49 -196 54 -465 151 -984 355 -71 28 -131 49 -133 47 -2 -2 96
-86 219 -186 123 -101 232 -192 243 -202 20 -19 20 -19 -5 -9 -41 15 -230 105
-455 217 -234 115 -411 214 -545 304 -198 133 -291 165 -688 236 -252 44 -350
68 -492 116 -127 43 -372 160 -495 237 -44 27 -81 48 -83 46 -2 -2 8 -35 22
-74 58 -162 67 -281 30 -424 -32 -124 -20 -124 -143 4 -201 211 -445 417 -613
518 -185 112 -494 259 -928 440 -175 74 -328 131 -730 272 -228 80 -368 142
-456 201 -131 88 -301 272 -525 571 -66 87 -121 153 -123 145 -2 -7 -12 -60
-21 -118 -26 -159 -69 -318 -105 -390 -39 -79 -83 -150 -91 -150 -12 0 -155
222 -192 296 -20 38 -43 97 -52 130 -30 104 -78 194 -244 460 -236 375 -305
466 -520 687 l-115 118 -45 -6 c-114 -15 -202 -40 -282 -80 -141 -71 -270
-104 -469 -120 -47 -3 -177 -15 -290 -26 -113 -11 -213 -21 -222 -22 -10 -1
-18 -5 -18 -9 0 -5 78 -46 173 -93 175 -86 296 -130 496 -184 130 -35 123 -52
55 128 l-43 113 32 -6 c93 -18 200 -64 476 -203 168 -84 306 -151 307 -150 2
1 -14 29 -35 62 -21 33 -68 110 -105 170 l-68 110 92 -90 c115 -114 268 -284
364 -406 72 -91 169 -239 162 -246 -1 -2 -81 33 -176 77 -95 44 -174 80 -176
80 -3 0 44 -42 103 -92 162 -140 344 -320 448 -443 95 -113 265 -335 265 -346
0 -4 -21 -2 -47 2 -97 19 -292 39 -418 45 -144 7 -251 -4 -345 -36 -118 -40
-202 -52 -397 -57 -268 -8 -654 22 -873 68 -295 62 -415 122 -686 345 -119 97
-441 341 -691 523 l-181 132 -100 -35 c-140 -48 -300 -82 -500 -106 -233 -27
-426 -71 -444 -100 -5 -8 -62 -157 -128 -330 l-119 -315 -1 150 c-1 83 -3 164
-5 180 -2 17 -6 66 -10 110 -7 96 -30 202 -51 232 -8 13 -35 70 -59 128 -94
219 -191 361 -357 520 -57 55 -145 131 -195 170 -51 38 -91 71 -89 73 2 2 98
-13 212 -32 201 -34 288 -45 384 -50 l45 -2 115 -217 c63 -120 116 -212 117
-205 2 7 -14 97 -35 201 -21 103 -34 187 -29 187 4 0 117 -42 250 -94 380
-149 460 -170 664 -181 238 -13 478 -48 680 -99 248 -62 652 -126 799 -126
l73 0 -31 83 c-49 130 -67 206 -67 292 -1 60 -6 88 -20 111 -20 34 -93 85
-187 132 l-62 31 -7 70 c-4 38 -4 102 -1 143 3 40 8 120 11 178 3 58 8 117 11
133 3 16 58 87 136 175 162 183 185 217 311 454 l102 193 -1 95 c-1 64 -12
145 -33 250 -35 168 -36 179 -24 505 4 121 8 285 8 365 0 166 12 133 -137 394
-43 77 -83 158 -88 180 -10 46 -7 100 16 270 31 222 11 282 -202 616 -197 309
-217 342 -249 425 -80 203 -174 345 -324 487 -72 69 -110 96 -199 142 -61 31
-116 56 -123 56 -9 0 -10 -20 -6 -77 l7 -76 -88 85 c-104 102 -165 140 -224
140 -24 0 -92 -14 -152 -31 -127 -38 -186 -43 -214 -18 -23 21 -42 81 -42 136
0 22 -2 41 -4 41 -3 0 -35 -23 -71 -50 -86 -65 -148 -96 -210 -104 -54 -7
-132 -30 -237 -70 -38 -14 -68 -22 -68 -19 0 3 15 34 34 67 39 70 83 115 141
144 27 14 35 22 25 26 -26 9 -240 11 -342 4z"/>
</g>
</svg>
